<svg width="292.5573px" height="60.0002px" viewBox="0 0 292.5573 60.0002" version="1.1" xmlns="http://www.w3.org/2000/svg" xmlns:xlink="http://www.w3.org/1999/xlink">
    <g stroke="none" stroke-width="1" fill="none" fill-rule="evenodd">
        <g>
            <g class="logomark" fill="#1763FB">
                <polygon points="34.1443 53.2692 34.1443 55.6052 31.8573 55.6052 31.8573 57.5972 34.1443 57.5972 34.1443 60.0002 36.2173 60.0002 36.2173 57.5972 38.5053 57.5972 38.5053 55.6052 36.2173 55.6052 36.2173 53.2692"></polygon>
                <polygon points="23.5477 53.2692 23.5477 55.6052 21.2597 55.6052 21.2597 57.5972 23.4817 57.5972 23.4817 60.0002 25.5547 60.0002 25.5547 57.5972 27.8417 57.5972 27.8417 55.6052 25.5547 55.6052 25.5547 53.2692"></polygon>
                <polygon points="36.2173 42.5883 34.1443 42.5883 34.1443 44.9403 31.8573 44.9403 31.8573 46.9163 34.1443 46.9163 34.1443 49.2533 36.2173 49.2533 36.2173 46.9163 38.5043 46.9163 38.5043 44.9403 36.2173 44.9403"></polygon>
                <polygon points="25.5546 42.5883 23.5476 42.5883 23.5476 44.9403 21.2596 44.9403 21.2596 46.9163 23.4816 46.9163 23.4816 49.2533 25.5546 49.2533 25.5546 46.9163 27.8416 46.9163 27.8416 44.9403 25.5546 44.9403"></polygon>
                <polygon points="2.287 31.9248 2.287 34.2618 0 34.2618 0 36.2368 2.287 36.2368 2.287 38.5728 4.361 38.5728 4.361 36.2368 6.648 36.2368 6.648 34.2618 4.361 34.2618 4.361 31.9248"></polygon>
                <polygon points="15.0228 31.9246 12.9498 31.9246 12.9498 34.2616 10.6628 34.2616 10.6628 36.2366 12.9498 36.2366 12.9498 38.5726 15.0228 38.5726 15.0228 36.2366 17.2438 36.2366 17.2438 34.2616 15.0228 34.2616"></polygon>
                <polygon points="25.5546 31.9246 23.5476 31.9246 23.5476 34.2616 21.2596 34.2616 21.2596 36.2366 23.4816 36.2366 23.4816 38.5726 25.5546 38.5726 25.5546 36.2366 27.8416 36.2366 27.8416 34.2616 25.5546 34.2616"></polygon>
                <polygon points="36.2173 31.9246 34.1443 31.9246 34.1443 34.2616 31.8573 34.2616 31.8573 36.2366 34.1443 36.2366 34.1443 38.5726 36.2173 38.5726 36.2173 36.2366 38.5043 36.2366 38.5043 34.2616 36.2173 34.2616"></polygon>
                <polygon points="46.8801 31.9246 44.8231 31.9246 44.8231 34.2616 42.5201 34.2616 42.5201 36.2366 44.8231 36.2366 44.8231 38.5726 46.8801 38.5726 46.8801 36.2366 49.1841 36.2366 49.1841 34.2616 46.8801 34.2616"></polygon>
                <polygon points="57.4948 31.9246 55.5038 31.9246 55.5038 34.2616 53.1998 34.2616 53.1998 36.2366 55.5038 36.2366 55.5038 38.5726 57.5608 38.5726 57.5608 36.2366 59.8638 36.2366 59.8638 34.2616 57.4948 34.2616"></polygon>
                <polygon points="2.287 21.2607 2.287 23.5327 0 23.5327 0 25.5057 2.287 25.5057 2.287 27.9087 4.361 27.9087 4.361 25.5717 6.648 25.5717 6.648 23.5977 4.361 23.5977 4.361 21.2607"></polygon>
                <polygon points="15.0228 21.2608 12.9498 21.2608 12.9498 23.5318 10.6628 23.5318 10.6628 25.5058 12.9498 25.5058 12.9498 27.9088 15.0228 27.9088 15.0228 25.5718 17.2438 25.5718 17.2438 23.5978 15.0228 23.5978"></polygon>
                <polygon points="25.5546 21.2608 23.5476 21.2608 23.5476 23.5318 21.2596 23.5318 21.2596 25.5058 23.4816 25.5058 23.4816 27.9088 25.5546 27.9088 25.5546 25.5718 27.8416 25.5718 27.8416 23.5978 25.5546 23.5978"></polygon>
                <polygon points="36.2173 21.2608 34.1443 21.2608 34.1443 23.5318 31.8573 23.5318 31.8573 25.5058 34.1443 25.5058 34.1443 27.9088 36.2173 27.9088 36.2173 25.5718 38.5043 25.5718 38.5043 23.5978 36.2173 23.5978"></polygon>
                <polygon points="46.8801 21.2608 44.8231 21.2608 44.8231 23.5318 42.5201 23.5318 42.5201 25.5058 44.8231 25.5058 44.8231 27.9088 46.8801 27.9088 46.8801 25.5718 49.1841 25.5718 49.1841 23.5978 46.8801 23.5978"></polygon>
                <polygon points="57.4948 23.5975 57.4948 21.2605 55.5038 21.2605 55.5038 23.5315 53.1998 23.5315 53.1998 25.5065 55.5038 25.5065 55.5038 27.9085 57.5608 27.9085 57.5608 25.5725 59.8638 25.5725 59.8638 23.5975"></polygon>
                <polygon points="25.5546 10.6631 23.5476 10.6631 23.5476 13.0001 21.2596 13.0001 21.2596 14.9911 23.4816 14.9911 23.4816 17.2451 25.5546 17.2451 25.5546 14.9911 27.8416 14.9911 27.8416 13.0001 25.5546 13.0001"></polygon>
                <polygon points="36.2173 10.6631 34.1443 10.6631 34.1443 13.0001 31.8573 13.0001 31.8573 14.9911 34.1443 14.9911 34.1443 17.2451 36.2173 17.2451 36.2173 14.9911 38.5043 14.9911 38.5043 13.0001 36.2173 13.0001"></polygon>
                <polygon points="23.5477 0 23.5477 2.337 21.2597 2.337 21.2597 4.328 23.4817 4.328 23.4817 6.647 25.5547 6.647 25.5547 4.328 27.8417 4.328 27.8417 2.337 25.5547 2.337 25.5547 0"></polygon>
                <polygon points="34.1443 0 34.1443 2.337 31.8573 2.337 31.8573 4.328 34.1443 4.328 34.1443 6.647 36.2173 6.647 36.2173 4.328 38.5053 4.328 38.5053 2.337 36.2173 2.337 36.2173 0"></polygon>
            </g>
            <g class="letters" transform="translate(75.4129, 14.7935)" fill="#061752">
                <path d="M16.829,8.847 C16.541,7.037 15.018,4.362 11.109,4.362 C8.147,4.362 6.09,6.337 6.09,8.559 C6.09,10.411 7.242,11.81 9.504,12.304 L13.702,13.168 C18.846,14.196 21.602,17.447 21.602,21.562 C21.602,26.089 17.94,30.409 11.274,30.409 C3.868,30.409 0.453,25.636 0,21.439 L4.608,20.122 C4.896,23.167 7.077,25.965 11.274,25.965 C14.771,25.965 16.582,24.196 16.582,21.933 C16.582,20.04 15.183,18.517 12.673,17.982 L8.558,17.118 C4.115,16.213 1.152,13.291 1.152,8.929 C1.152,4.032 5.638,0 11.068,0 C17.94,0 20.614,4.197 21.273,7.448 L16.829,8.847 Z"></path>
                <path d="M26.4525,19.628 L26.4525,0.617 L31.3495,0.617 L31.3495,19.34 C31.3495,23.455 33.6125,25.718 37.3155,25.718 C41.0605,25.718 43.2835,23.455 43.2835,19.34 L43.2835,0.617 L48.2215,0.617 L48.2215,19.628 C48.2215,26.665 43.4475,30.409 37.3155,30.409 C31.2255,30.409 26.4525,26.665 26.4525,19.628"></path>
                <path d="M64.4693,25.5949 C67.4323,25.5949 69.3663,23.9899 69.3663,21.3979 C69.3663,18.8879 67.6783,17.1179 64.6343,17.1179 L59.4493,17.1179 L59.4493,25.5949 L64.4693,25.5949 Z M63.9343,12.9619 C66.8153,12.9619 68.5433,11.3159 68.5433,8.8879 C68.5433,6.4189 66.8153,4.8139 63.8113,4.8139 L59.4493,4.8139 L59.4493,12.9619 L63.9343,12.9619 Z M64.5923,0.6169 C70.1893,0.6169 73.4813,3.9089 73.4813,8.4769 C73.4813,11.5629 71.6703,13.8669 69.1603,14.7729 C72.2463,15.5959 74.3863,18.2699 74.3863,21.7269 C74.3863,26.4179 70.7653,29.7919 65.3333,29.7919 L54.5523,29.7919 L54.5523,0.6169 L64.5923,0.6169 Z"></path>
                <path d="M95.1202,8.847 C94.8322,7.037 93.3092,4.362 89.4002,4.362 C86.4382,4.362 84.3802,6.337 84.3802,8.559 C84.3802,10.411 85.5322,11.81 87.7952,12.304 L91.9932,13.168 C97.1372,14.196 99.8942,17.447 99.8942,21.562 C99.8942,26.089 96.2312,30.409 89.5652,30.409 C82.1582,30.409 78.7432,25.636 78.2902,21.439 L82.8982,20.122 C83.1862,23.167 85.3672,25.965 89.5652,25.965 C93.0622,25.965 94.8732,24.196 94.8732,21.933 C94.8732,20.04 93.4742,18.517 90.9642,17.982 L86.8492,17.118 C82.4052,16.213 79.4422,13.291 79.4422,8.929 C79.4422,4.032 83.9282,0 89.3592,0 C96.2312,0 98.9052,4.197 99.5642,7.448 L95.1202,8.847 Z"></path>
                <path d="M103.1797,15.2252 C103.1797,5.7202 110.2977,0.0002 117.8697,0.0002 C125.2767,0.0002 129.6797,4.3622 130.9957,9.4642 L126.3457,11.0282 C125.4817,7.4892 122.7667,4.6502 117.8697,4.6502 C113.0547,4.6502 108.2407,8.1472 108.2407,15.2252 C108.2407,22.0562 112.9317,25.6772 117.9107,25.6772 C122.8077,25.6772 125.6057,22.5492 126.5937,19.2582 L131.1197,20.7392 C129.8037,25.6772 125.3587,30.4092 117.9107,30.4092 C110.0507,30.4092 103.1797,24.7302 103.1797,15.2252"></path>
                <path d="M146.3392,13.9085 C149.3842,13.9085 151.3592,12.1395 151.3592,9.4645 C151.3592,6.7485 149.3842,4.9785 146.3392,4.9785 L141.0312,4.9785 L141.0312,13.9085 L146.3392,13.9085 Z M144.6522,18.2705 L141.0312,18.2705 L141.0312,29.7925 L136.0522,29.7925 L136.0522,0.6175 L147.2452,0.6175 C152.8822,0.6175 156.3802,4.5265 156.3802,9.4645 C156.3802,13.6205 153.8692,16.7885 149.7962,17.7765 L156.3802,29.7925 L150.7832,29.7925 L144.6522,18.2705 Z"></path>
                <polygon points="162.7112 29.7918 167.7312 29.7918 167.7312 0.6168 162.7112 0.6168"></polygon>
                <path d="M184.2718,25.5949 C187.2348,25.5949 189.1688,23.9899 189.1688,21.3979 C189.1688,18.8879 187.4808,17.1179 184.4368,17.1179 L179.2518,17.1179 L179.2518,25.5949 L184.2718,25.5949 Z M183.7368,12.9619 C186.6178,12.9619 188.3458,11.3159 188.3458,8.8879 C188.3458,6.4189 186.6178,4.8139 183.6138,4.8139 L179.2518,4.8139 L179.2518,12.9619 L183.7368,12.9619 Z M184.3948,0.6169 C189.9918,0.6169 193.2838,3.9089 193.2838,8.4769 C193.2838,11.5629 191.4728,13.8669 188.9628,14.7729 C192.0488,15.5959 194.1888,18.2699 194.1888,21.7269 C194.1888,26.4179 190.5678,29.7919 185.1358,29.7919 L174.3548,29.7919 L174.3548,0.6169 L184.3948,0.6169 Z"></path>
                <polygon points="199.1204 29.7921 199.1204 0.6171 217.1444 0.6171 217.1444 5.2261 204.0584 5.2261 204.0584 12.9621 215.9104 12.9621 215.9104 17.4471 204.0584 17.4471 204.0584 25.1831 217.1444 25.1831 217.1444 29.7921"></polygon>
            </g>
        </g>
    </g>
</svg>